<?xml version="1.0" encoding="UTF-8"?>
<svg width="24px" height="24px" viewBox="0 0 24 24" version="1.1" xmlns="http://www.w3.org/2000/svg" xmlns:xlink="http://www.w3.org/1999/xlink">
    <title>问卷备份</title>
    <g id="我的任务（学员）" stroke="none" stroke-width="1" fill="none" fill-rule="evenodd">
        <g id="问卷备份">
            <rect id="矩形" x="0" y="0" width="24" height="24"></rect>
            <path d="M16.5967508,1 L16.5967508,2.84102679 C16.5967508,4.29960337 17.6906925,5.4689672 19.0999713,5.55676061 L19.2705485,5.56205357 L21,5.56205357 L21,21.1589732 C21,22.1489241 20.2914424,22.919495 19.3426633,22.9940772 L19.1909281,23 L4.8090719,23 C3.83630368,23 3.07910769,22.2789267 3.00582001,21.3133887 L3,21.1589732 L3,2.84102679 C3,1.85107589 3.70855758,1.08050502 4.65733666,1.00592281 L4.8090719,1 L16.5967508,1 Z M16.1062248,18 L7.89377525,18 C7.47034923,18 7.10869565,18.3454939 7.10869565,18.75 C7.10869565,19.1207973 7.41258511,19.4420079 7.78937921,19.492968 L7.89377525,19.5 L16.1062248,19.5 C16.5296508,19.5 16.8913043,19.0952846 16.8913043,18.75 C16.8913043,18.3454939 16.5296508,18 16.1062248,18 Z M16.1062248,14.7558929 L7.89377525,14.7558929 C7.47034923,14.7558929 7.10869565,15.1013867 7.10869565,15.5058929 C7.10869565,15.8766902 7.41258511,16.1979007 7.78937921,16.2488609 L7.89377525,16.2558929 L16.1062248,16.2558929 C16.5296508,16.2558929 16.8913043,15.9202344 16.8913043,15.5058929 C16.8913043,15.1013867 16.5296508,14.7558929 16.1062248,14.7558929 Z M12.7243354,10.1689471 L10.7458444,10.1689471 L10.7458444,11.6010268 L12.7243354,11.6010268 L12.7243354,10.1689471 Z M12.0169396,4.37153938 C11.1045424,4.37153938 10.3867117,4.58597656 9.96649155,5.00424808 C9.53605399,5.49392653 9.25909567,5.99399145 9.39235741,6.62670015 L9.39235741,6.62670015 L11.3095437,6.84092095 C11.3095437,6.4836699 11.4530229,6.20821225 11.5965021,6.06539838 C11.7401987,5.92258452 11.9452,5.85117758 12.1604188,5.85117758 C12.3656375,5.85117758 12.5091167,5.92258452 12.6525959,5.99399145 C12.7243354,6.05501192 12.796075,6.19804217 12.796075,6.41226297 C12.796075,6.55529322 12.6628133,6.75934394 12.3758549,6.97356474 C11.8736778,7.40222272 11.5249799,7.67768038 11.3815007,7.82049424 C11.2378041,8.02454496 11.0943249,8.16757521 11.0225853,8.38179601 C10.9508457,8.59601681 10.8791061,8.87169085 10.8791061,9.15731858 L10.8791061,9.15731858 L10.8791061,9.37153938 L12.7243354,9.37153938 C12.7243354,9.09608173 12.796075,8.88164454 12.8678146,8.73883068 C12.9395542,8.59601681 13.1445556,8.39174971 13.5034709,8.10612197 C13.9339085,7.74908731 14.2826064,7.47341327 14.4260856,7.18778554 C14.5695648,6.97356474 14.6413043,6.6978907 14.6413043,6.41226297 C14.6413043,5.77955427 14.2826064,5.20808242 13.7186897,4.7898109 C13.2882521,4.51435325 12.7243354,4.37153938 12.0169396,4.37153938 Z M18.246582,1 L21,3.72102679 L19.1909281,3.72102679 C18.7576346,3.72102679 18.3147714,3.37170212 18.2537159,2.94159424 L18.246582,2.84102679 L18.246582,1 Z" id="形状结合" fill="#2875D4" fill-rule="nonzero"></path>
        </g>
    </g>
</svg>