<?xml version="1.0" encoding="UTF-8"?>
<svg width="24px" height="24px" viewBox="0 0 24 24" version="1.1" xmlns="http://www.w3.org/2000/svg" xmlns:xlink="http://www.w3.org/1999/xlink">
    <title>学习1</title>
    <g id="我的任务（学员）" stroke="none" stroke-width="1" fill="none" fill-rule="evenodd">
        <g id="学习1">
            <rect id="矩形" x="0" y="0" width="24" height="24"></rect>
            <path d="M17.9224158,2 C18.3877972,2 18.7610353,2.38650684 18.7610353,2.8604201 L18.7610353,2.8604201 L18.7610353,14.904261 C18.7610353,15.377492 18.3851251,15.7619502 17.9224158,15.7619502 L17.9224158,15.7619502 L5.47800733,15.7619502 C4.50518403,15.7619502 3.68058599,16.7971792 3.68058599,18.0222535 C3.68058599,19.4678985 4.83101749,20.2825662 5.84857734,20.2852976 L5.84857734,20.2852976 L19.634378,20.2852976 C20.0156285,20.2852976 20.3241013,19.9698103 20.3241013,19.5798904 L20.3241013,19.5798904 L20.3241013,6.17987958 C20.3227629,5.04426828 22,5.02924574 22,6.18261841 L22,6.18261841 L22,19.5758072 C21.9974375,20.9135576 20.9377212,21.9973699 19.6297063,22 L19.6297063,22 L5.47466764,22 C3.78340122,22 2.36990043,20.6062487 2.06142756,18.7700036 C2.01936302,18.5378274 2,18.3022362 2,18.0645963 L2,18.0645963 L2,7.16594166 C2,4.31768063 4.26614964,2 7.05241298,2 L7.05241298,2 Z M17.9123965,17.1577382 C18.5874313,17.1577382 18.844492,17.7197427 18.7376616,18.2011682 C18.6682212,18.5637738 18.3938005,18.881992 17.9204088,18.881992 L17.9204088,18.881992 L7.50311168,18.881992 C6.53696267,18.881992 6.32196708,17.5742907 7.09915846,17.2403658 C7.20999634,17.1884675 7.34153059,17.1577382 7.4950994,17.1577382 L7.4950994,17.1577382 Z" id="形状结合" fill="#2875D4" fill-rule="nonzero"></path>
        </g>
    </g>
</svg>