<?xml version="1.0" encoding="UTF-8"?>
<svg width="24px" height="24px" viewBox="0 0 24 24" version="1.1" xmlns="http://www.w3.org/2000/svg" xmlns:xlink="http://www.w3.org/1999/xlink">
    <title>作业备份</title>
    <g id="我的任务（学员）" stroke="none" stroke-width="1" fill="none" fill-rule="evenodd">
        <g id="作业备份">
            <rect id="矩形" x="0" y="0" width="24" height="24"></rect>
            <path d="M22.2367584,15.7406642 L22.2367583,15.7406642 C21.9665746,15.3031848 21.6395951,14.9034401 21.2643642,14.5518718 L21.2643642,14.5518718 C20.8808815,14.1899928 20.4573885,13.8730138 20.0020855,13.6070748 L20.7781672,12.8622458 C20.7781672,12.8622458 21.8881666,12.8622458 22.4440833,13.3942678 C23,13.9281235 23,14.9958351 23,14.9958351 L22.2367605,15.7406642 M15.3731157,22.4202892 L13.0466981,22.4202892 L13.0466981,20.1876275 L13.3237383,19.9197816 C13.833788,20.1527695 14.2961346,20.4646447 14.6905955,20.842564 C15.0832224,21.2204832 15.4189741,21.6644443 15.6501474,22.1542707 L15.3731071,22.4202892 M21.5872651,16.3515625 L16.3216443,21.4993195 L16.3216444,21.4993195 C16.0399622,21.0395289 15.6974422,20.6199 15.3033812,20.2518229 L15.303381,20.2518227 C14.9062325,19.8725899 14.4630493,19.5446982 13.9842248,19.2758397 L19.354424,14.2069618 C19.840621,14.4271085 20.2809511,14.7279764 20.6625719,15.0838788 C21.0441906,15.4397833 21.3671,15.8965877 21.5872651,16.3515562 M14.4465649,16.0755192 L6.56034249,16.0755192 C6.08420979,16.0857566 5.68992949,15.8502279 5.67969095,15.3741349 C5.68970563,14.8976469 6.08381664,14.5857054 6.55995362,14.5957281 L15.6262982,14.5957364 C15.7877525,14.5957364 15.9381994,14.6397658 16.0666283,14.7058098 C17.8462949,12.9941691 19.5837647,11.3046997 20.3820125,10.5598772 L20.3820125,2.85656985 C20.3836976,1.8347215 19.5158812,1 18.4517487,1 L2.93011414,1 C1.86598388,1 1,1.83472365 1,2.85656985 L1,21.1434302 C1,22.1652785 1.86781788,23 2.93378213,23 L10.7001036,23 C10.7001036,21.9763178 10.7001036,20.6315955 10.6872606,20.2426625 C10.6744112,19.9656384 12.4100448,18.0550057 14.4465649,16.0755192 Z M6.4201513,5.64874752 L14.9615065,5.6487549 C15.355905,5.63965873 15.6825021,5.97520895 15.69099,6.3982277 C15.6826876,6.82159735 15.3562307,7.15730635 14.9618287,7.14840098 L6.42047342,7.1483936 C6.02607493,7.15748977 5.69947783,6.82193954 5.69098999,6.3989208 C5.69929239,5.97555114 6.02574926,5.63984215 6.4201513,5.64874752 Z M6.42630848,10.1269119 L14.9587244,10.1269119 C15.3546271,10.1178256 15.6824698,10.4530118 15.69099,10.8755717 C15.6834979,11.2984996 15.3564646,11.6345886 14.9605423,11.6265916 L6.43088413,11.6265524 C6.02813795,11.6265524 5.69098999,11.2813578 5.69098999,10.8775472 C5.70391018,10.4538685 6.03087066,10.1187355 6.42630848,10.1269119 Z" id="形状" fill="#2875D4" fill-rule="nonzero"></path>
        </g>
    </g>
</svg>