<?xml version="1.0" encoding="UTF-8"?>
<svg width="20px" height="24px" viewBox="0 0 20 24" version="1.1" xmlns="http://www.w3.org/2000/svg" xmlns:xlink="http://www.w3.org/1999/xlink">
    <title>编组 11备份</title>
    <g id="我的任务（学员）" stroke="none" stroke-width="1" fill="none" fill-rule="evenodd">
        <g id="编组-11备份">
            <path d="M9.67561674,24 C9.54803063,24 9.42168735,23.9749361 9.30399479,23.9256744 C9.18571278,23.8747787 9.07444505,23.8089263 8.97291344,23.7297283 C8.2539939,23.0107749 7.60287848,22.3123284 7.18324974,21.8530375 C6.6890171,21.3122987 6.20453542,20.7627276 5.73003905,20.2045901 C5.16622102,19.5409071 4.63189621,18.8810079 4.14189582,18.2432371 C2.9250029,16.6593506 1.959698,15.185802 1.27280553,13.8631658 C1.07642024,13.4850574 0.900305201,13.1141111 0.749325362,12.7606311 C0.590980634,12.3898537 0.455879153,12.0280291 0.347872324,11.6851572 C0.239863279,11.346639 0.153950465,11.0014642 0.0906761514,10.6518117 C0.0322465103,10.3296561 0.0019072526,10.0030344 -6.43041176e-13,9.67562843 C-6.43041176e-13,9.01997404 0.0655651218,8.36596286 0.19625057,7.7234646 C0.971659299,3.93349207 3.93345009,0.971687994 7.72341914,0.196262262 C9.01171881,-0.065420754 10.3394809,-0.065420754 11.6277806,0.196262262 C15.4178029,0.971648647 18.3796471,3.93347956 19.1550505,7.7234984 C19.2857423,8.3659957 19.3513011,9.02000752 19.3513011,9.67566223 C19.3494328,10.0062152 19.3190954,10.3359929 19.2606249,10.6613387 C19.197435,11.0137383 19.1115237,11.361683 19.0034287,11.702995 C18.8953206,12.0484007 18.7601853,12.4126578 18.6019757,12.7856649 C18.4510296,13.1412395 18.2749146,13.5142804 18.0784955,13.894382 C17.391603,15.2236399 16.4264671,16.7026952 15.2093715,18.2905007 C14.7195062,18.9298255 14.1850463,19.5911774 13.6212282,20.2557726 C13.1468266,20.814656 12.6623321,21.3648932 12.1679837,21.9062132 C11.7484564,22.365673 11.0973747,23.0646601 10.3782863,23.7837486 C10.1762591,23.9353365 9.96615755,24 9.67561674,24 Z" id="形状" fill="#E8633F" fill-rule="nonzero"></path>
            <circle id="椭圆形" fill="#FFFFFF" cx="10" cy="10" r="4"></circle>
        </g>
    </g>
</svg>