<?xml version="1.0" encoding="UTF-8"?>
<svg width="24px" height="24px" viewBox="0 0 24 24" version="1.1" xmlns="http://www.w3.org/2000/svg" xmlns:xlink="http://www.w3.org/1999/xlink">
    <title>编组 47备份</title>
    <g id="我的任务（学员）" stroke="none" stroke-width="1" fill="none" fill-rule="evenodd">
        <g id="编组-47备份">
            <rect id="矩形" x="0" y="0" width="24.000008" height="24.000008"></rect>
            <path d="M20.7510969,10.1283278 L21.8020829,10.7410692 C21.9836585,10.8390113 22.0947067,11.0212353 22.0925108,11.2176458 L23.0000895,21.327878 C23.0000895,21.5321251 22.927491,21.7704134 22.7096701,21.9065782 C22.5811569,21.9486561 22.4464158,21.9716278 22.3103317,21.9746605 C22.2377247,21.9746605 22.1288143,21.9746605 22.0562073,21.9406194 L16.9011118,19.9321894 L12.2179618,21.5321251 C12.0750186,21.5661798 11.9252631,21.5661798 11.7823199,21.5321251 L6.66352791,19.9321894 L1.94407435,21.9406194 C1.86087677,21.9797051 1.7690967,22 1.67604115,22 C1.5358771,21.9996918 1.39997982,21.9547576 1.29061154,21.8725583 C1.10366099,21.7320857 0.996455362,21.5184701 1.0000895,21.2938581 L1.90777086,11.1836258 C1.94407435,10.9453376 2.0892883,10.7410904 2.34341271,10.6389669 L3.94800425,10.1083924 C4.31103914,9.9722277 4.67407404,10.1424336 4.81928799,10.4488043 C4.84435186,10.5069738 4.86039769,10.5682106 4.86693632,10.6306481 C6.09503798,13.4671937 10.3215356,19.0554161 12.0108957,19.0407571 C13.7497194,19.0256513 19.7089825,10.3880621 19.7089825,10.3880621 L19.7419506,10.4099335 C19.7602088,10.3710927 19.7820433,10.3338184 19.8072061,10.2985337 C20.0250271,9.99216305 20.4243655,9.92408069 20.7510969,10.1283278 Z M13.250987,2.12635479 C15.6795719,2.6255531 17.5774736,4.5323972 18.0743396,6.97243355 C18.1580847,7.38607708 18.2000938,7.80713372 18.2000938,8.22924807 C18.1988966,8.44205998 18.1794569,8.65437283 18.1419899,8.86383239 C18.1014989,9.0907093 18.0464483,9.31471813 17.9771828,9.53445681 C17.9079088,9.75683103 17.8213164,9.99134186 17.7199382,10.231486 C17.6232144,10.460407 17.5103628,10.7005729 17.3845006,10.9452846 C16.944351,11.8010686 16.3259075,12.7532931 15.5460124,13.7755316 C15.2321147,14.1871327 14.8896414,14.6129149 14.528356,15.0407851 C14.2243671,15.4005976 13.9139109,15.7548435 13.5971405,16.1033485 C13.3283141,16.3991514 12.9111116,16.8491634 12.4503313,17.3121168 C12.3208756,17.40971 12.1862459,17.4513407 12.0000721,17.4513407 C11.918317,17.4513407 11.8373583,17.4352044 11.7619428,17.4034894 C11.6861496,17.3707225 11.614851,17.3283264 11.5497912,17.2773382 C11.0891192,16.8144718 10.671895,16.3648078 10.4030037,16.0691136 C10.0863075,15.7209828 9.77585946,15.3671658 9.47180988,15.0078336 C9.11052442,14.5805506 8.76813775,14.1557036 8.45415344,13.745103 C7.67438819,12.7253876 7.05583646,11.7767084 6.6156869,10.9251874 C6.48984639,10.681759 6.37699473,10.4429416 6.2802493,10.2153691 C6.17878456,9.97666048 6.09221372,9.74371565 6.0230047,9.52297269 C5.95379425,9.30503268 5.89874271,9.08280717 5.85819756,8.85769883 C5.82075679,8.65029314 5.80131589,8.44001216 5.80009375,8.22922631 C5.80009375,7.80711217 5.84210682,7.38605594 5.92584793,6.97241179 C6.42271728,4.53240526 8.3205848,2.62557843 10.7491355,2.12635479 C11.5746571,1.95788174 12.4254655,1.95788174 13.250987,2.12635479 Z M12.0000964,4.99281578 C11.8361853,4.99281578 11.6726839,5.00961435 11.5120462,5.04306165 C10.5657248,5.24083685 9.82615434,5.99975749 9.63341363,6.9708469 C9.56820915,7.30137802 9.56820915,7.64196604 9.63341363,7.97249716 C9.82615434,8.94358657 10.5657248,9.70250722 11.5120462,9.90028241 C11.8341466,9.96719024 12.1660463,9.96719024 12.4881467,9.90028241 C13.4344627,9.70249699 14.1740286,8.94358107 14.3667792,7.97249716 C14.4319766,7.64196531 14.4319766,7.30137876 14.3667792,6.9708469 C14.1740385,5.9997575 13.4344681,5.24083685 12.4881467,5.04306165 C12.3275089,5.00961491 12.1640076,4.99281578 12.0000964,4.99281578 Z" id="形状结合" fill="#2875D4" fill-rule="nonzero"></path>
        </g>
    </g>
</svg>